<svg width="13" height="13" viewBox="0 0 13 13" fill="none" xmlns="http://www.w3.org/2000/svg">
<path d="M6.25525 7.6133L1.70489 12.1637C1.53464 12.3339 1.31796 12.419 1.05484 12.419C0.791726 12.419 0.575042 12.3339 0.404791 12.1637C0.234539 11.9934 0.149414 11.7767 0.149414 11.5136C0.149414 11.2505 0.234539 11.0338 0.404791 10.8636L4.95514 6.3132L0.404791 1.76284C0.234539 1.59259 0.149414 1.37591 0.149414 1.11279C0.149414 0.849679 0.234539 0.632995 0.404791 0.462744C0.575042 0.292492 0.791726 0.207367 1.05484 0.207367C1.31796 0.207367 1.53464 0.292492 1.70489 0.462744L6.25525 5.0131L10.8056 0.462744C10.9758 0.292492 11.1925 0.207367 11.4556 0.207367C11.7188 0.207367 11.9354 0.292492 12.1057 0.462744C12.2759 0.632995 12.3611 0.849679 12.3611 1.11279C12.3611 1.37591 12.2759 1.59259 12.1057 1.76284L7.55535 6.3132L12.1057 10.8636C12.2759 11.0338 12.3611 11.2505 12.3611 11.5136C12.3611 11.7767 12.2759 11.9934 12.1057 12.1637C11.9354 12.3339 11.7188 12.419 11.4556 12.419C11.1925 12.419 10.9758 12.3339 10.8056 12.1637L6.25525 7.6133Z" fill="white"/>
</svg>
